<?xml version="1.0" standalone="no"?>
<!DOCTYPE svg PUBLIC "-//W3C//DTD SVG 20010904//EN"
 "http://www.w3.org/TR/2001/REC-SVG-20010904/DTD/svg10.dtd">
<svg version="1.0" xmlns="http://www.w3.org/2000/svg"
 width="300.000000pt" height="231.000000pt" viewBox="0 0 300.000000 231.000000"
 preserveAspectRatio="xMidYMid meet">

<g transform="translate(0.000000,231.000000) scale(0.100000,-0.100000)"
fill="#000000" stroke="none">
<path d="M1165 855 c-224 -48 -403 -140 -636 -326 -117 -93 -128 -110 -39 -61
198 107 351 148 520 139 126 -7 213 -30 450 -120 315 -118 432 -143 634 -134
246 11 449 93 708 287 57 43 121 94 143 114 40 37 40 36 -80 -23 -66 -32 -158
-71 -205 -87 -79 -26 -96 -28 -235 -28 -172 0 -211 9 -478 113 -191 74 -291
105 -396 125 -100 19 -301 20 -386 1z"/>
</g>
</svg>
